Coordinates
version=1
nRows=21
nColumns=38
inDegrees=no

Units are S.I. units (second, meters, Newtons, ...)
If the header above contains a line with 'inDegrees', this indicates whether rotational values are in degrees (yes) or radians (no).

endheader
time	pelvis_tilt	pelvis_list	pelvis_rotation	pelvis_tx	pelvis_ty	pelvis_tz	hip_flexion_r	hip_adduction_r	hip_rotation_r	knee_angle_r	ankle_angle_r	subtalar_angle_r	mtp_angle_r	hip_flexion_l	hip_adduction_l	hip_rotation_l	knee_angle_l	ankle_angle_l	subtalar_angle_l	mtp_angle_l	lumbar_extension	lumbar_bending	lumbar_rotation	arm_flex_r	arm_add_r	arm_rot_r	elbow_flex_r	pro_sup_r	wrist_flex_r	wrist_dev_r	arm_flex_l	arm_add_l	arm_rot_l	elbow_flex_l	pro_sup_l	wrist_flex_l	wrist_dev_l
0.81	-0.172592	-0.0237486	-0.0469168	0.777406	1.0315	-0.471697	0.513792	0.0112014	-0.222879	-0.237276	-0.107821	-0.00851793	0.00027473	0.0830617	-0.0463476	-0.13399	-0.772411	-0.237424	0.0162463	-4.19321e-05	0.0284679	0.0622822	-0.256866	-0.665554	-0.423305	-0.0187872	2.06892	1.34968	0.00438679	0.00160641	-0.171972	-0.540047	0.407186	2.33587	1.40571	0.00333543	-0.0204063
0.82	-0.16447	-0.025258	-0.0498452	0.779528	1.0269	-0.469108	0.511752	0.0184245	-0.193138	-0.281053	-0.0778909	-0.00851793	0.00027473	0.0867104	-0.0620848	-0.146107	-0.834016	-0.226114	0.0162463	-4.19321e-05	0.0214313	0.0644121	-0.250759	-0.658613	-0.421513	-0.0207737	2.07037	1.34685	0.00438679	0.00160641	-0.189763	-0.53813	0.396221	2.32481	1.40236	0.00333543	-0.0204063
0.83	-0.15717	-0.0275602	-0.0516318	0.781284	1.02137	-0.466828	0.510506	0.0253186	-0.1683	-0.328588	-0.0383997	-0.00851793	0.00027473	0.0949129	-0.0779203	-0.154618	-0.896621	-0.21316	0.0162463	-4.19321e-05	0.0144806	0.067906	-0.244739	-0.647253	-0.419775	-0.0206669	2.06749	1.34662	0.00438679	0.00160641	-0.207456	-0.535925	0.384669	2.30897	1.40195	0.00333543	-0.0204063
0.84	-0.15074	-0.0306537	-0.0522982	0.782637	1.01502	-0.464857	0.510049	0.0318801	-0.148378	-0.379642	0.0101621	-0.00851793	0.00027473	0.107718	-0.0937902	-0.15949	-0.960166	-0.198581	0.0162463	-4.19321e-05	0.0076371	0.0727512	-0.238786	-0.631467	-0.418066	-0.0184673	2.06026	1.34898	0.00438679	0.00160641	-0.225033	-0.533424	0.37258	2.28836	1.40439	0.00333543	-0.0204063
0.85	-0.145283	-0.0345131	-0.0519061	0.78353	1.00803	-0.463198	0.51036	0.0381046	-0.133328	-0.433532	0.0663437	-0.00851793	0.00027473	0.125241	-0.109504	-0.160639	-1.02445	-0.182428	0.0162463	-4.19321e-05	0.000959182	0.0789131	-0.232848	-0.611242	-0.416322	-0.0141721	2.04872	1.3538	0.00438679	0.00160641	-0.242453	-0.530596	0.360112	2.26306	1.40939	0.00333543	-0.0204063
0.86	-0.14092	-0.0390418	-0.0505643	0.783939	1.00064	-0.461853	0.511357	0.0439738	-0.122923	-0.489099	0.127637	-0.00851793	0.00027473	0.147608	-0.124695	-0.157955	-1.08902	-0.164796	0.0162463	-4.19321e-05	-0.00547461	0.086309	-0.226838	-0.586594	-0.414438	-0.00777119	2.03299	1.36078	0.00438679	0.00160641	-0.259673	-0.527392	0.347573	2.23328	1.41634	0.00333543	-0.0204063
0.87	-0.137649	-0.0441007	-0.0484256	0.783887	0.993116	-0.460816	0.512846	0.0494327	-0.116708	-0.544795	0.190819	-0.00851793	0.00027473	0.174864	-0.138857	-0.151423	-1.15314	-0.145816	0.0162463	-4.19321e-05	-0.0115721	0.094771	-0.220654	-0.557618	-0.412281	0.000743109	2.01338	1.36926	0.00438679	0.00160641	-0.276687	-0.523766	0.335407	2.19947	1.42426	0.00333543	-0.0204063
0.88	-0.135484	-0.0495174	-0.045678	0.783391	0.98574	-0.460065	0.514397	0.05436	-0.114012	-0.59886	0.252549	-0.00851793	0.00027473	0.206807	-0.151394	-0.141246	-1.21577	-0.125668	0.0162463	-4.19321e-05	-0.0173396	0.103992	-0.214182	-0.524567	-0.409703	0.0113414	1.99055	1.37821	0.00438679	0.00160641	-0.293571	-0.519726	0.324125	2.16239	1.43204	0.00333543	-0.0204063
0.89	-0.134354	-0.055016	-0.0425465	0.78245	0.978794	-0.459569	0.515327	0.0585916	-0.113995	-0.64947	0.309937	-0.00851793	0.00027473	0.242919	-0.161723	-0.127911	-1.27565	-0.104604	0.0162463	-4.19321e-05	-0.022866	0.113543	-0.207277	-0.487917	-0.406545	0.0239021	1.96551	1.38637	0.00438679	0.00160641	-0.310514	-0.515385	0.314194	2.12317	1.43861	0.00333543	-0.0204063
0.9	-0.13409	-0.0602623	-0.0392977	0.78109	0.972523	-0.459275	0.514756	0.0619414	-0.11573	-0.69489	0.360879	-0.00851793	0.00027473	0.282358	-0.169357	-0.11221	-1.33132	-0.0829605	0.0162463	-4.19321e-05	-0.0282821	0.122869	-0.199745	-0.44841	-0.402647	0.0381564	1.93963	1.39249	0.00438679	0.00160641	-0.327829	-0.510996	0.305949	2.08333	1.44312	0.00333543	-0.0204063
0.91	-0.134448	-0.0648762	-0.0362223	0.779397	0.967119	-0.459131	0.511739	0.0642315	-0.11829	-0.733616	0.404135	-0.00851793	0.00027473	0.324022	-0.173968	-0.0951793	-1.38128	-0.0611347	0.0162463	-4.19321e-05	-0.0336945	0.131341	-0.191345	-0.407041	-0.397853	0.0536582	1.91454	1.39559	0.00438679	0.00160641	-0.345935	-0.506935	0.299526	2.04465	1.44493	0.00333543	-0.0204063
0.92	-0.135179	-0.0684547	-0.0335915	0.777507	0.962739	-0.459084	0.505441	0.0652969	-0.120845	-0.764513	0.439223	-0.00851793	0.00027473	0.366683	-0.175419	-0.0779865	-1.42406	-0.0395351	0.0162463	-4.19321e-05	-0.0390968	0.138312	-0.181838	-0.365001	-0.392049	0.0697961	1.89194	1.39531	0.00438679	0.00160641	-0.365314	-0.503647	0.294846	2.00904	1.44348	0.00333543	-0.0204063
0.93	-0.136106	-0.0706074	-0.0316087	0.775561	0.959489	-0.459097	0.495271	0.0649773	-0.12274	-0.78689	0.466217	-0.00851793	0.00027473	0.409133	-0.173757	-0.0617955	-1.45838	-0.0185201	0.0162463	-4.19321e-05	-0.0443294	0.143182	-0.171056	-0.323567	-0.385192	0.0858532	1.87342	1.39203	0.00438679	0.00160641	-0.386456	-0.501564	0.291623	1.97836	1.4383	0.00333543	-0.0204063
0.94	-0.137182	-0.0709712	-0.0303661	0.773686	0.957424	-0.459154	0.480943	0.0631176	-0.123538	-0.80051	0.485509	-0.00851793	0.00027473	0.450287	-0.169196	-0.0476585	-1.4832	0.0016345	0.0162463	-4.19321e-05	-0.0490962	0.145479	-0.15895	-0.283977	-0.377342	0.101098	1.86025	1.3869	0.00438679	0.00160641	-0.40978	-0.501023	0.289414	1.95413	1.42905	0.00333543	-0.0204063
0.95	-0.138481	-0.0692998	-0.0298351	0.772004	0.956554	-0.459252	0.462485	0.0595633	-0.123029	-0.805548	0.497599	-0.00851793	0.00027473	0.489245	-0.16208	-0.0364568	-1.49777	0.0207271	0.0162463	-4.19321e-05	-0.0530176	0.144882	-0.145621	-0.2473	-0.368668	0.114884	1.85324	1.38161	0.00438679	0.00160641	-0.435568	-0.502202	0.28769	1.93735	1.41568	0.00333543	-0.0204063
0.96	-0.140095	-0.0654756	-0.0298904	0.770616	0.956849	-0.459399	0.440196	0.0541814	-0.121214	-0.802516	0.502917	-0.00851793	0.00027473	0.525298	-0.152855	-0.0288805	-1.50164	0.0385869	0.0162463	-4.19321e-05	-0.0557058	0.141258	-0.13131	-0.214344	-0.359432	0.126734	1.85264	1.3782	0.00438679	0.00160641	-0.463913	-0.505089	0.285915	1.92834	1.39856	0.00333543	-0.0204063
0.97	-0.142108	-0.0594975	-0.0303427	0.769592	0.958259	-0.45961	0.414534	0.0468911	-0.118289	-0.792182	0.501711	-0.00851793	0.00027473	0.557859	-0.142046	-0.0254293	-1.4946	0.0550284	0.0162463	-4.19321e-05	-0.0568803	0.134665	-0.116361	-0.185596	-0.349945	0.136398	1.85817	1.37858	0.00438679	0.00160641	-0.494702	-0.509479	0.283603	1.9267	1.37862	0.00333543	-0.0204063
0.98	-0.144525	-0.0514834	-0.03098	0.768982	0.960716	-0.459904	0.386019	0.0376878	-0.11462	-0.77549	0.49401	-0.00851793	0.00027473	0.586384	-0.130207	-0.0264144	-1.47666	0.0698354	0.0162463	-4.19321e-05	-0.0564478	0.125332	-0.101178	-0.161229	-0.340529	0.143867	1.86905	1.38417	0.00438679	0.00160641	-0.527639	-0.515001	0.280358	1.93142	1.35721	0.00333543	-0.0204063
0.99	-0.147216	-0.0416801	-0.031601	0.768815	0.964143	-0.460295	0.35515	0.0266589	-0.110716	-0.75348	0.479663	-0.00851793	0.00027473	0.610331	-0.117873	-0.0319382	-1.44792	0.0827864	0.0162463	-4.19321e-05	-0.0545215	0.113615	-0.0861775	-0.14114	-0.331473	0.14935	1.88418	1.39563	0.00438679	0.00160641	-0.562281	-0.52116	0.275878	1.94108	1.33597	0.00333543	-0.0204063
1	-0.149904	-0.03049	-0.0320504	0.769104	0.968452	-0.460788	0.322386	0.0139867	-0.107189	-0.727246	0.45843	-0.00851793	0.00027473	0.629162	-0.105488	-0.0418412	-1.40862	0.0937037	0.0162463	-4.19321e-05	-0.0513901	0.0999465	-0.0717611	-0.125036	-0.323013	0.153212	1.90226	1.41271	0.00438679	0.00160641	-0.598086	-0.527406	0.269975	1.95405	1.31632	0.00333543	-0.0204063
1.01	-0.152321	-0.0183456	-0.0322046	0.769841	0.973529	-0.461382	0.288154	-1.47968e-05	-0.104723	-0.697917	0.430107	-0.00851793	0.00027473	0.642404	-0.0933689	-0.0556037	-1.3591	0.10249	0.0162463	-4.19321e-05	-0.0474793	0.0848686	-0.0582782	-0.112517	-0.315321	0.155901	1.92203	1.43436	0.00438679	0.00160641	-0.634446	-0.533204	0.262571	1.96876	1.29932	0.00333543	-0.0204063
